<svg id="Layer_1" enable-background="new 0 0 512 512" height="512" viewBox="0 0 512 512" width="512" xmlns="http://www.w3.org/2000/svg"><g><g id="XMLID_181_"><g id="XMLID_182_"><g id="XMLID_183_"><g id="XMLID_184_"><g id="XMLID_185_"><g id="XMLID_186_"><g id="XMLID_187_"><g id="XMLID_188_"><g id="XMLID_189_"><g id="XMLID_190_"><g id="XMLID_191_"><g id="XMLID_192_"><g id="XMLID_193_"><g id="XMLID_194_"><circle id="XMLID_195_" cx="256" cy="256" fill="#27e0c9" r="256"/></g></g></g></g></g></g></g></g></g></g></g></g></g></g><path d="m512 256c0-33.202-6.323-64.928-17.827-94.04l-25.897-25.608-357.108 28.231-26.793 80.125 59.716 59.7 56.358 140.881 66.463 66.463c136.321-5.719 245.088-118.025 245.088-255.752z" fill="#17bfab"/><g><g><g><path d="m208.671 137.946s-47.96-38.914-63.466-37.023-34.037 55.972-34.037 55.972 27.28 49.057 37.144 71.416z" fill="#b56f40"/><path d="m157.921 104.119s-12.778-10.172-34.519-4.028c-26.325 7.44-53.783 19.375-67.577 26.241-20.625 10.267-20.625 29.752-6.868 58.67 9.585 20.148 34.213 69.935 44.837 63.179 5.05-3.211 34.868-87.026 41.017-103.423 5.083-13.554 21.201-34.959 23.11-40.639z" fill="#cc8656"/></g><g><path d="m303.328 137.946s47.96-38.914 63.466-37.023 34.037 55.972 34.037 55.972-27.28 49.057-37.144 71.416z" fill="#a35d2e"/><path d="m354.079 104.119s12.778-10.172 34.519-4.028c26.325 7.44 53.783 19.375 67.577 26.241 20.625 10.267 20.625 29.752 6.868 58.67-9.585 20.148-34.213 69.935-44.837 63.179-5.05-3.211-34.868-87.026-41.017-103.423-5.083-13.554-21.202-34.959-23.11-40.639z" fill="#b56f40"/></g></g><g><path d="m371.417 324.062c-1.318 2.734-2.759 5.586-4.331 8.574-35.262 67.059-22.522 129.031-109.711 129.031s-74.45-61.972-109.711-129.031c-1.572-2.988-3.013-5.84-4.331-8.574 0 0 19.254-43.012 29.555-100.775 8.917-50.068 60.779-100.775 60.779-100.775 7.834-1.494 15.799-2.217 23.709-2.217 7.909 0 15.875.723 23.709 2.217 0 0 50.435 50.707 59.352 100.775 10.299 57.763 30.98 100.775 30.98 100.775z" fill="#fcf0e5"/><path d="m371.42 324.06c-1.32 2.74-2.76 5.59-4.33 8.58-35.27 67.06-22.53 129.03-109.72 129.03-.46 0-.92 0-1.37-.01v-341.35c.46-.01.91-.01 1.37-.01 7.91 0 15.88.72 23.71 2.21 0 0 50.44 50.71 59.36 100.78 10.3 57.76 30.98 100.77 30.98 100.77z" fill="#eaddd3"/><g><path d="m256 347.437c-25.394 0-47.715 1.558-41.169 31.08 4.232 19.084 31.165 32.715 41.169 32.715s36.936-13.632 41.168-32.715c6.547-29.522-15.774-31.08-41.168-31.08z" fill="#70695e"/></g><g><path d="m297.17 378.52c-4.23 19.08-31.17 32.71-41.17 32.71v-63.79c25.39 0 47.72 1.55 41.17 31.08z" fill="#5b554a"/></g><g><path d="m220.097 298.872c-19.585 12.402-56.464 21.469-76.764 25.189-28.36-58.593.301-61.171 10.602-118.934 8.917-50.068 43.378-75.389 81.107-82.616 2.824 44.444 18.443 155.239-14.945 176.361z" fill="#cc8656"/><path d="m371.417 324.062c-20.3-3.721-56.568-12.4-76.152-24.802-33.388-21.123-18.381-132.305-15.557-176.748 37.729 7.226 72.19 32.548 81.107 82.616 10.301 57.763 38.962 60.341 10.602 118.934z" fill="#b56f40"/></g></g><g><ellipse cx="189.13" cy="247.748" fill="#5b554a" rx="16.052" ry="16.052" transform="matrix(.811 -.586 .586 .811 -109.256 157.664)"/><ellipse cx="322.87" cy="247.748" fill="#3a352e" rx="16.052" ry="16.052" transform="matrix(.811 -.586 .586 .811 -83.929 235.977)"/></g></g></g></svg>