<svg height="512" viewBox="0 0 128 128" width="512" xmlns="http://www.w3.org/2000/svg"><g id="Circle_Grid" data-name="Circle Grid"><circle cx="64" cy="64" fill="#f6c863" r="64"/></g><g id="icon"><path d="m101.376 37.526v49.21h-74.752v-49.21a3.262 3.262 0 0 1 3.262-3.262h68.228a3.262 3.262 0 0 1 3.262 3.262z" fill="#62667c"/><path d="m22 83.474h84a0 0 0 0 1 0 0v6.262a4 4 0 0 1 -4 4h-76a4 4 0 0 1 -4-4v-6.262a0 0 0 0 1 0 0z" fill="#62667c"/><path d="m31.04 38.48h65.92v44.99h-65.92z" fill="#69b0ee"/><path d="m70.983 86.736h-13.966l-1.886-3.262h17.738z" fill="#828a9e"/><circle cx="59.434" cy="74.871" fill="#414451" r="3.185"/><circle cx="59.434" cy="74.87" fill="#dbd8dd" r="1.442"/><circle cx="71.873" cy="74.871" fill="#414451" r="3.185"/><circle cx="71.873" cy="74.87" fill="#dbd8dd" r="1.442"/><path d="m79.76 63.5a1.579 1.579 0 0 1 -1.332 1.111l-21.95 3.304-3.55-18.652 29.182 2.209a1.018 1.018 0 0 1 .9 1.31z" fill="#eeefee"/><path d="m78.292 71.684h-23.341a2.638 2.638 0 1 1 0-5.276h.357l-3.508-20.48h-3.973a.789.789 0 1 1 0-1.579h4.638a.789.789 0 0 1 .778.656l3.779 22.059a.789.789 0 0 1 -.778.923h-1.293a1.059 1.059 0 1 0 0 2.118h23.341a.789.789 0 0 1 0 1.579z" fill="#eeefee"/><path d="m50.261 44.017v2.173a.114.114 0 0 1 -.114.114h-4a1.2 1.2 0 0 1 -1.2-1.2 1.2 1.2 0 0 1 1.2-1.2h4a.114.114 0 0 1 .114.113z" fill="#575b6d"/><g fill="#dbd8dd"><rect height="9.077" rx=".486" width="1.586" x="73.771" y="53.301"/><rect height="9.077" rx=".486" width="1.586" x="67.197" y="53.301"/><rect height="9.077" rx=".486" width="1.586" x="60.622" y="53.301"/></g></g></svg>